                                                                        S      1
,,6Hdog v7,6Hdog v7,7Hunknown,7Hunknown,32,38,7,99,15,,1.,2,2HMM,1,0.08,G      1
15H20160310.182743,0.01,10000.,7Hunknown,7Hunknown,11,0,;               G      2
     186       1                                                00000000D      1
     186            -237       1       0                               0D      2
     186       2                                                00000000D      3
     186            -237       1       0                               0D      4
     514       3                                                00010000D      5
     514                       2       1                               0D      6
     514       5                                                00010000D      7
     514                       1       1                               0D      8
     510       6                                                00010000D      9
     510            -237       1       1                               0D     10
     510       7                                                00010000D     11
     510            -237       1       1                               0D     12
     510       8                                                00010000D     13
     510            -237       1       1                               0D     14
     510       9                                                00010000D     15
     510            -237       1       1                               0D     16
     510      10                                                00010000D     17
     510            -237       1       1                               0D     18
     510      11                                                00010000D     19
     510            -237       1       1                               0D     20
     510      12                                                00010000D     21
     510            -237       1       1                               0D     22
     510      13                                                00010000D     23
     510            -237       1       1                               0D     24
     510      14                                                00010000D     25
     510            -237       1       1                               0D     26
     510      15                                                00010000D     27
     510            -237       1       1                               0D     28
     510      16                                                00010000D     29
     510            -237       1       1                               0D     30
     510      17                                                00010000D     31
     510            -237       1       1                               0D     32
     510      18                                                00010000D     33
     510            -237       1       1                               0D     34
     510      19                                                00010000D     35
     510            -237       1       1                               0D     36
     510      20                                                00010000D     37
     510            -237       1       1                               0D     38
     510      21                                                00010000D     39
     510            -237       1       1                               0D     40
     510      22                                                00010000D     41
     510            -237       1       1                               0D     42
     510      23                                                00010000D     43
     510            -237       1       1                               0D     44
     510      24                                                00010000D     45
     510            -237       1       1                               0D     46
     510      25                                                00010000D     47
     510            -237       1       1                               0D     48
     508      26                                                00010000D     49
     508                       1       1                               0D     50
     508      27                                                00010000D     51
     508                       1       1                               0D     52
     508      28                                                00010000D     53
     508                       1       1                               0D     54
     508      29                                                00010000D     55
     508                       1       1                               0D     56
     508      30                                                00010000D     57
     508                       1       1                               0D     58
     508      31                                                00010000D     59
     508                       1       1                               0D     60
     508      32                                                00010000D     61
     508                       1       1                               0D     62
     508      33                                                00010000D     63
     508                       1       1                               0D     64
     508      34                                                00010000D     65
     508                       3       1                               0D     66
     508      37                                                00010000D     67
     508                       3       1                               0D     68
     508      40                                                00010000D     69
     508                       1       1                               0D     70
     508      41                                                00010000D     71
     508                       1       1                               0D     72
     508      42                                                00010000D     73
     508                       1       1                               0D     74
     508      43                                                00010000D     75
     508                       1       1                               0D     76
     508      44                                                00010000D     77
     508                       1       1                               0D     78
     508      45                                                00010000D     79
     508                       1       1                               0D     80
     508      46                                                00010000D     81
     508                       2       1                               0D     82
     508      48                                                00010000D     83
     508                       2       1                               0D     84
     508      50                                                00010000D     85
     508                       1       1                               0D     86
     508      51                                                00010000D     87
     508                       1       1                               0D     88
     126      52                                                00010000D     89
     126       0               5       0                               0D     90
     126      57                                                00010000D     91
     126       0               3       0                               0D     92
     126      60                                                00010000D     93
     126       0               6       0                               0D     94
     126      66                                                00010000D     95
     126       0               3       0                               0D     96
     126      69                                                00010000D     97
     126       0               4       0                               0D     98
     126      73                                                00010000D     99
     126       0               3       0                               0D    100
     126      76                                                00010000D    101
     126       0               4       0                               0D    102
     126      80                                                00010000D    103
     126       0               5       0                               0D    104
     126      85                                                00010000D    105
     126       0               6       0                               0D    106
     126      91                                                00010000D    107
     126       0               2       0                               0D    108
     126      93                                                00010000D    109
     126       0               3       0                               0D    110
     126      96                                                00010000D    111
     126       0               3       0                               0D    112
     126      99                                                00010000D    113
     126       0               3       0                               0D    114
     126     102                                                00010000D    115
     126       0               3       0                               0D    116
     126     105                                                00010000D    117
     126       0               3       0                               0D    118
     126     108                                                00010000D    119
     126       0               4       0                               0D    120
     126     112                                                00010000D    121
     126       0               4       0                               0D    122
     126     116                                                00010000D    123
     126       0               3       0                               0D    124
     126     119                                                00010000D    125
     126       0               3       0                               0D    126
     126     122                                                00010000D    127
     126       0               3       0                               0D    128
     126     125                                                00010000D    129
     126       0               3       0                               0D    130
     126     128                                                00010000D    131
     126       0               2       0                               0D    132
     126     130                                                00010000D    133
     126       0               3       0                               0D    134
     126     133                                                00010000D    135
     126       0               3       0                               0D    136
     126     136                                                00010000D    137
     126       0               3       0                               0D    138
     126     139                                                00010000D    139
     126       0               3       0                               0D    140
     126     142                                                00010000D    141
     126       0               2       0                               0D    142
     126     144                                                00010000D    143
     126       0               3       0                               0D    144
     126     147                                                00010000D    145
     126       0               2       0                               0D    146
     126     149                                                00010000D    147
     126       0               3       0                               0D    148
     126     152                                                00010000D    149
     126       0               5       0                               0D    150
     126     157                                                00010000D    151
     126       0               4       0                               0D    152
     126     161                                                00010000D    153
     126       0               7       0                               0D    154
     126     168                                                00010000D    155
     126       0               3       0                               0D    156
     126     171                                                00010000D    157
     126       0               5       0                               0D    158
     126     176                                                00010000D    159
     126       0               4       0                               0D    160
     126     180                                                00010000D    161
     126       0               5       0                               0D    162
     126     185                                                00010000D    163
     126       0               6       0                               0D    164
     126     191                                                00010000D    165
     126       0               7       0                               0D    166
     126     198                                                00010000D    167
     126       0               3       0                               0D    168
     126     201                                                00010000D    169
     126       0               3       0                               0D    170
     126     204                                                00010000D    171
     126       0               3       0                               0D    172
     126     207                                                00010000D    173
     126       0               3       0                               0D    174
     126     210                                                00010000D    175
     126       0               3       0                               0D    176
     126     213                                                00010000D    177
     126       0               3       0                               0D    178
     126     216                                                00010000D    179
     126       0               3       0                               0D    180
     126     219                                                00010000D    181
     126       0               3       0                               0D    182
     126     222                                                00010000D    183
     126       0               3       0                               0D    184
     128     225                                                00010000D    185
     128       0    -237       8       0                               0D    186
     128     233                                                00010000D    187
     128       0    -237       7       0                               0D    188
     128     240                                                00010000D    189
     128       0    -237       8       0                               0D    190
     128     248                                                00010000D    191
     128       0    -237       6       0                               0D    192
     128     254                                                00010000D    193
     128       0    -237       6       0                               0D    194
     128     260                                                00010000D    195
     128       0    -237       6       0                               0D    196
     128     266                                                00010000D    197
     128       0    -237       6       0                               0D    198
     128     272                                                00010000D    199
     128       0    -237       6       0                               0D    200
     128     278                                                00010000D    201
     128       0    -237       7       0                               0D    202
     128     285                                                00010000D    203
     128       0    -237       6       0                               0D    204
     128     291                                                00010000D    205
     128       0    -237       5       0                               0D    206
     128     296                                                00010000D    207
     128       0    -237       4       0                               0D    208
     128     300                                                00010000D    209
     128       0    -237      10       0                               0D    210
     128     310                                                00010000D    211
     128       0    -237       8       0                               0D    212
     128     318                                                00010000D    213
     128       0    -237      10       0                               0D    214
     128     328                                                00010000D    215
     128       0    -237       6       0                               0D    216
     128     334                                                00010000D    217
     128       0    -237       7       0                               0D    218
     128     341                                                00010000D    219
     128       0    -237       7       0                               0D    220
     128     348                                                00010000D    221
     128       0    -237       6       0                               0D    222
     128     354                                                00010000D    223
     128       0    -237       6       0                               0D    224
     502     360                                                00010000D    225
     502                      10       1                               0D    226
     502     370                                                00010000D    227
     502                      12       1                               0D    228
     504     382                                                00010001D    229
     504                       9       1                               0D    230
     504     391                                                00010001D    231
     504                       5       1                               0D    232
     406     396                                                00000000D    233
     406                       1      15                               0D    234
     406     397                                                00000000D    235
     406                       1      15                               0D    236
     314     398                                                00000200D    237
     314                       2       0                               0D    238
186,5,1,0,0,1,233;                                                     1P      1
186,7,1,0,0,1,235;                                                     3P      2
514,12,9,1,11,1,13,1,15,1,17,1,19,1,21,1,23,1,25,1,27,1,29,1,31,       5P      3
1;                                                                     5P      4
514,8,33,1,35,1,37,1,39,1,41,1,43,1,45,1,47,1;                         7P      5
510,185,1,1,49;                                                        9P      6
510,187,1,1,51;                                                       11P      7
510,189,1,1,53;                                                       13P      8
510,191,1,1,55;                                                       15P      9
510,193,1,1,57;                                                       17P     10
510,195,1,1,59;                                                       19P     11
510,197,1,1,61;                                                       21P     12
510,199,1,1,63;                                                       23P     13
510,201,1,1,65;                                                       25P     14
510,203,1,1,67;                                                       27P     15
510,205,1,1,69;                                                       29P     16
510,207,1,1,71;                                                       31P     17
510,209,1,1,73;                                                       33P     18
510,211,1,1,75;                                                       35P     19
510,213,1,1,77;                                                       37P     20
510,215,1,1,79;                                                       39P     21
510,217,1,1,81;                                                       41P     22
510,219,1,1,83;                                                       43P     23
510,221,1,1,85;                                                       45P     24
510,223,1,1,87;                                                       47P     25
508,4,0,229,1,1,0,0,229,2,1,0,0,229,3,1,0,0,229,4,0,0;                49P     26
508,4,0,229,2,0,0,0,229,5,0,0,0,229,6,0,0,0,229,7,0,0;                51P     27
508,4,0,229,8,1,0,0,229,6,1,0,0,229,9,1,0,0,229,10,1,0;               53P     28
508,4,0,229,11,1,0,0,229,12,0,0,0,229,13,0,0,0,229,14,0,0;            55P     29
508,4,0,229,15,1,0,0,229,16,0,0,0,229,11,0,0,0,229,17,0,0;            57P     30
508,4,0,229,18,0,0,0,229,19,0,0,0,229,15,0,0,0,229,20,0,0;            59P     31
508,4,0,229,18,1,0,0,229,21,0,0,0,229,22,1,0,0,229,23,0,0;            61P     32
508,4,0,229,13,1,0,0,229,24,0,0,0,229,25,0,0,0,229,26,0,0;            63P     33
508,10,0,229,27,1,0,0,229,9,0,0,0,229,5,1,0,0,229,1,0,0,0,229,        65P     34
28,1,0,0,229,21,1,0,0,229,20,1,0,0,229,17,1,0,0,229,14,1,0,0,         65P     35
229,26,1,0;                                                           65P     36
508,10,0,229,29,1,0,0,229,24,1,0,0,229,12,1,0,0,229,16,1,0,0,         67P     37
229,19,1,0,0,229,23,1,0,0,229,30,1,0,0,229,3,0,0,0,229,7,1,0,0,       67P     38
229,8,0,0;                                                            67P     39
508,4,0,229,4,1,0,0,229,30,0,0,0,229,22,0,0,0,229,28,0,0;             69P     40
508,4,0,229,25,1,0,0,229,29,0,0,0,229,10,0,0,0,229,27,0,0;            71P     41
508,4,0,231,1,1,0,0,231,2,1,0,0,231,3,1,0,0,231,4,0,0;                73P     42
508,4,0,231,2,0,0,0,231,5,0,0,0,231,6,0,0,0,231,7,0,0;                75P     43
508,4,0,231,8,1,0,0,231,6,1,0,0,231,9,1,0,0,231,10,1,0;               77P     44
508,4,0,231,11,0,0,0,231,12,1,0,0,231,13,0,0,0,231,14,0,0;            79P     45
508,6,0,231,11,1,0,0,231,15,1,0,0,231,9,0,0,0,231,5,1,0,0,231,1,      81P     46
0,0,0,231,16,1,0;                                                     81P     47
508,6,0,231,13,1,0,0,231,17,1,0,0,231,3,0,0,0,231,7,1,0,0,231,8,      83P     48
0,0,0,231,18,1,0;                                                     83P     49
508,4,0,231,4,1,0,0,231,17,0,0,0,231,12,0,0,0,231,16,0,0;             85P     50
508,4,0,231,14,1,0,0,231,18,0,0,0,231,10,0,0,0,231,15,0,0;            87P     51
126,2,2,0,0,0,0,0.,0.,0.,1.31811608319431,1.31811608319431,           89P     52
1.31811608319431,1.,0.79056941150825,1.,25.000000372529,1.,           89P     53
6.10947603618683D-7,40.000000596029,1.,3.87298383019863,              89P     54
40.000000596029,1.,19.3649173996921,0.,1.31811608319431,0.,0.,        89P     55
0.;                                                                   89P     56
126,1,1,0,0,1,0,-0.025,-0.025,0.025,0.025,1.,1.,40.000000596029,      91P     57
1.,19.3649173996921,40.000000596029,0.,19.3649173996921,-0.025,       91P     58
0.025,0.,0.,0.;                                                       91P     59
126,2,2,0,0,0,0,4.96506922398528,4.96506922398528,                    93P     60
4.96506922398528,6.28318530717959,6.28318530717959,                   93P     61
6.28318530717959,1.,0.79056941150825,1.,40.000000596029,0.,           93P     62
19.3649173996921,40.000000596029,0.,3.87298383019863,                 93P     63
25.000000372529,0.,6.10947605839129D-7,4.96506922398528,              93P     64
6.28318530717959,0.,0.,0.;                                            93P     65
126,1,1,0,0,1,0,-0.05,-0.05,0.05,0.05,1.,1.,25.,1.,                   95P     66
-2.22044604925031D-15,25.,0.,-2.22044604925031D-15,-0.05,0.05,        95P     67
0.,0.,0.;                                                             95P     68
126,1,1,0,0,1,0,-0.0635083211255463,-0.0635083211255463,              97P     69
0.0635083211255465,0.0635083211255465,1.,1.,40.000000596029,1.,       97P     70
20.6350838222031,40.000000596029,1.,19.3649173996921,                 97P     71
-0.0635083211255463,0.0635083211255465,0.,0.,0.;                      97P     72
126,1,1,0,0,1,0,-0.025,-0.025,0.025,0.025,1.,1.,40.000000596029,      99P     73
0.,20.6350838222031,40.000000596029,1.,20.6350838222031,-0.025,       99P     74
0.025,0.,0.,0.;                                                       99P     75
126,1,1,0,0,1,0,-0.0635083211255465,-0.0635083211255465,             101P     76
0.0635083211255463,0.0635083211255463,1.,1.,40.000000596029,0.,      101P     77
19.3649173996921,40.000000596029,0.,20.6350838222031,                101P     78
-0.0635083211255465,0.0635083211255463,0.,0.,0.;                     101P     79
126,2,2,0,0,0,0,0.,0.,0.,1.31811608319431,1.31811608319431,          103P     80
1.31811608319431,1.,0.79056941150825,1.,25.000000372529,0.,          103P     81
40.0000006109476,40.000000596029,0.,36.1270173916966,                103P     82
40.000000596029,0.,20.6350838222031,0.,1.31811608319431,0.,0.,       103P     83
0.;                                                                  103P     84
126,2,2,0,0,0,0,4.96506922398528,4.96506922398528,                   105P     85
4.96506922398528,6.28318530717959,6.28318530717959,                  105P     86
6.28318530717959,1.,0.79056941150825,1.,40.000000596029,1.,          105P     87
20.6350838222031,40.000000596029,1.,36.1270173916966,                105P     88
25.000000372529,1.,40.0000006109476,4.96506922398528,                105P     89
6.28318530717959,0.,0.,0.;                                           105P     90
126,1,1,0,0,1,0,-0.05,-0.05,0.05,0.05,1.,1.,25.,1.,40.,25.,0.,       107P     91
40.,-0.05,0.05,0.,0.,0.;                                             107P     92
126,1,1,0,0,1,0,-0.05,-0.05,0.05,0.05,1.,1.,-15.0000002235,1.,       109P     93
38.0000005662441,-15.0000002235,0.,38.0000005662441,-0.05,0.05,      109P     94
0.,0.,0.;                                                            109P     95
126,1,1,0,0,1,0,-0.750000011175,-0.750000011175,0.750000011175,      111P     96
0.750000011175,1.,1.,0.,0.,38.0000005662441,-15.0000002235,0.,       111P     97
38.0000005662441,-0.750000011175,0.750000011175,0.,0.,0.;            111P     98
126,1,1,0,0,1,0,-0.05,-0.05,0.05,0.05,1.,1.,                         113P     99
4.44089209850063D-15,1.,38.0000005662441,4.44089209850063D-15,       113P    100
0.,38.0000005662441,-0.05,0.05,0.,0.,0.;                             113P    101
126,1,1,0,0,1,0,-0.750000011175,-0.750000011175,0.750000011175,      115P    102
0.750000011175,1.,1.,-15.0000002235,1.,38.0000005662441,0.,1.,       115P    103
38.0000005662441,-0.750000011175,0.750000011175,0.,0.,0.;            115P    104
126,1,1,0,0,1,0,-0.05,-0.05,0.05,0.05,1.,1.,-15.0000002235,1.,       117P    105
34.0000005066441,-15.0000002235,0.,34.0000005066441,-0.05,0.05,      117P    106
0.,0.,0.;                                                            117P    107
126,1,1,0,0,1,0,-0.20000000298,-0.20000000298,0.20000000298,         119P    108
0.20000000298,1.,1.,-15.0000002235,0.,38.0000005662441,              119P    109
-15.0000002235,0.,34.0000005066441,-0.20000000298,0.20000000298,     119P    110
0.,0.,0.;                                                            119P    111
126,1,1,0,0,1,0,-0.20000000298,-0.20000000298,0.20000000298,         121P    112
0.20000000298,1.,1.,-15.0000002235,1.,34.0000005066441,              121P    113
-15.0000002235,1.,38.0000005662441,-0.20000000298,0.20000000298,     121P    114
0.,0.,0.;                                                            121P    115
126,1,1,0,0,1,0,-0.05,-0.05,0.05,0.05,1.,1.,                         123P    116
3.88578058618805D-15,0.,34.0000005066441,3.88578058618805D-15,       123P    117
1.,34.0000005066441,-0.05,0.05,0.,0.,0.;                             123P    118
126,1,1,0,0,1,0,-0.750000011175,-0.750000011175,0.750000011175,      125P    119
0.750000011175,1.,1.,-15.0000002235,0.,34.0000005066441,0.,0.,       125P    120
34.0000005066441,-0.750000011175,0.750000011175,0.,0.,0.;            125P    121
126,1,1,0,0,1,0,-0.750000011175,-0.750000011175,0.750000011175,      127P    122
0.750000011175,1.,1.,0.,1.,34.0000005066441,-15.0000002235,1.,       127P    123
34.0000005066441,-0.750000011175,0.750000011175,0.,0.,0.;            127P    124
126,1,1,0,0,1,0,-2.,-2.,1.40000005066441,1.40000005066441,1.,1.,     129P    125
-4.93038065763132D-31,1.,0.,3.77475833997433D-15,1.,                 129P    126
34.0000005066441,-2.,1.40000005066441,0.,0.,0.;                      129P    127
126,1,1,0,0,1,0,-0.05,-0.05,0.05,0.05,1.,1.,0.,1.,0.,0.,0.,0.,       131P    128
-0.05,0.05,0.,0.,0.;                                                 131P    129
126,1,1,0,0,1,0,-1.40000005066441,-1.40000005066441,2.,2.,1.,1.,     133P    130
3.77475833997433D-15,0.,34.0000005066441,-4.93038065763132D-31,      133P    131
0.,0.,-1.40000005066441,2.,0.,0.,0.;                                 133P    132
126,1,1,0,0,1,0,-2.,-2.,-1.80000005662441,-1.80000005662441,1.,      135P    133
1.,4.44089209850063D-15,0.,40.,4.21884755644132D-15,0.,              135P    134
38.0000005662441,-2.,-1.80000005662441,0.,0.,0.;                     135P    135
126,1,1,0,0,1,0,-0.05,-0.05,0.05,0.05,1.,1.,                         137P    136
4.44089209850063D-15,1.,40.,4.44089209850063D-15,0.,40.,-0.05,       137P    137
0.05,0.,0.,0.;                                                       137P    138
126,1,1,0,0,1,0,1.80000005662441,1.80000005662441,2.,2.,1.,1.,       139P    139
4.21884755644132D-15,1.,38.0000005662441,4.44089209850063D-15,       139P    140
1.,40.,1.80000005662441,2.,0.,0.,0.;                                 139P    141
126,1,1,0,0,1,0,-1.25,-1.25,1.25,1.25,1.,1.,                         141P    142
4.44089209850063D-15,1.,40.,25.,1.,40.,-1.25,1.25,0.,0.,0.;          141P    143
126,1,1,0,0,1,0,-1.25,-1.25,1.25,1.25,1.,1.,25.,1.,                  143P    144
-3.60822483003176D-15,0.,1.,-8.32667268468867D-16,-1.25,1.25,0.,     143P    145
0.,0.;                                                               143P    146
126,1,1,0,0,1,0,-1.25,-1.25,1.25,1.25,1.,1.,25.,0.,40.,              145P    147
4.44089209850063D-15,0.,40.,-1.25,1.25,0.,0.,0.;                     145P    148
126,1,1,0,0,1,0,-1.25,-1.25,1.25,1.25,1.,1.,0.,0.,                   147P    149
-8.32667268468867D-16,25.,0.,-3.60822483003176D-15,-1.25,1.25,       147P    150
0.,0.,0.;                                                            147P    151
126,2,2,0,0,0,0,0.,0.,0.,1.31811608319431,1.31811608319431,          149P    152
1.31811608319431,1.,0.79056941150825,1.,20.8253994130889,            149P    153
0.961422407896138,51.7409445745704,35.8253996365889,                 149P    154
0.961422407896138,55.6139277938214,35.8253996365889,                 149P    155
0.961422407896138,71.1058613633149,0.,1.31811608319431,0.,0.,0.;     149P    156
126,1,1,0,0,1,0,-0.025,-0.025,0.025,0.025,1.,1.,                     151P    157
35.8253996365889,0.961422407896137,71.1058613633149,                 151P    158
35.8253996365889,-0.0385775921038629,71.1058613633149,-0.025,        151P    159
0.025,0.,0.,0.;                                                      151P    160
126,2,2,0,0,0,0,4.96506922398528,4.96506922398528,                   153P    161
4.96506922398528,6.28318530717959,6.28318530717959,                  153P    162
6.28318530717959,1.,0.790569411508251,1.,35.8253996365889,           153P    163
-0.0385775921038634,71.1058613633149,35.8253996365889,               153P    164
-0.0385775921038634,55.6139277938214,20.8253994130889,               153P    165
-0.0385775921038634,51.7409445745704,4.96506922398528,               153P    166
6.28318530717959,0.,0.,0.;                                           153P    167
126,1,1,0,0,1,0,-0.05,-0.05,0.05,0.05,1.,1.,20.8253990405599,        155P    168
0.961422407896137,51.7409439636228,20.8253990405599,                 155P    169
-0.0385775921038629,51.7409439636228,-0.05,0.05,0.,0.,0.;            155P    170
126,1,1,0,0,1,0,-0.0635083211255463,-0.0635083211255463,             157P    171
0.0635083211255465,0.0635083211255465,1.,1.,35.8253996365889,        157P    172
0.961422407896138,72.3760277858259,35.8253996365889,                 157P    173
0.961422407896138,71.1058613633149,-0.0635083211255463,              157P    174
0.0635083211255465,0.,0.,0.;                                         157P    175
126,1,1,0,0,1,0,-0.025,-0.025,0.025,0.025,1.,1.,                     159P    176
35.8253996365889,-0.0385775921038629,72.3760277858259,               159P    177
35.8253996365889,0.961422407896137,72.3760277858259,-0.025,          159P    178
0.025,0.,0.,0.;                                                      159P    179
126,1,1,0,0,1,0,-0.0635083211255465,-0.0635083211255465,             161P    180
0.0635083211255463,0.0635083211255463,1.,1.,35.8253996365889,        161P    181
-0.0385775921038634,71.1058613633149,35.8253996365889,               161P    182
-0.0385775921038634,72.3760277858259,-0.0635083211255465,            161P    183
0.0635083211255463,0.,0.,0.;                                         161P    184
126,2,2,0,0,0,0,0.,0.,0.,1.31811608319431,1.31811608319431,          163P    185
1.31811608319431,1.,0.79056941150825,1.,20.8253994130889,            163P    186
-0.0385775921038634,91.7409445745704,35.8253996365889,               163P    187
-0.0385775921038634,87.8679613553194,35.8253996365889,               163P    188
-0.0385775921038634,72.3760277858259,0.,1.31811608319431,0.,0.,      163P    189
0.;                                                                  163P    190
126,2,2,0,0,0,0,4.96506922398528,4.96506922398528,                   165P    191
4.96506922398528,6.28318530717959,6.28318530717959,                  165P    192
6.28318530717959,1.,0.79056941150825,1.,35.8253996365889,            165P    193
0.961422407896138,72.3760277858259,35.8253996365889,                 165P    194
0.961422407896138,87.8679613553194,20.8253994130889,                 165P    195
0.961422407896138,91.7409445745704,4.96506922398528,                 165P    196
6.28318530717959,0.,0.,0.;                                           165P    197
126,1,1,0,0,1,0,-0.05,-0.05,0.05,0.05,1.,1.,20.8253990405599,        167P    198
0.961422407896137,91.7409439636228,20.8253990405599,                 167P    199
-0.0385775921038629,91.7409439636228,-0.05,0.05,0.,0.,0.;            167P    200
126,1,1,0,0,1,0,-2.,-2.,2.,2.,1.,1.,-4.17460095944009,               169P    201
0.961422407896138,51.7409439636228,-4.17460095944008,                169P    202
0.961422407896138,91.7409439636228,-2.,2.,0.,0.,0.;                  169P    203
126,1,1,0,0,1,0,-0.05,-0.05,0.05,0.05,1.,1.,-4.17460095944008,       171P    204
0.961422407896137,51.7409439636228,-4.17460095944008,                171P    205
-0.0385775921038629,51.7409439636228,-0.05,0.05,0.,0.,0.;            171P    206
126,1,1,0,0,1,0,-2.,-2.,2.,2.,1.,1.,-4.17460095944008,               173P    207
-0.0385775921038634,91.7409439636228,-4.17460095944009,              173P    208
-0.0385775921038634,51.7409439636228,-2.,2.,0.,0.,0.;                173P    209
126,1,1,0,0,1,0,-0.05,-0.05,0.05,0.05,1.,1.,-4.17460095944008,       175P    210
0.961422407896137,91.7409439636228,-4.17460095944008,                175P    211
-0.0385775921038629,91.7409439636228,-0.05,0.05,0.,0.,0.;            175P    212
126,1,1,0,0,1,0,-1.25,-1.25,1.25,1.25,1.,1.,-4.17460095944008,       177P    213
0.961422407896138,91.7409439636228,20.8253990405599,                 177P    214
0.961422407896138,91.7409439636228,-1.25,1.25,0.,0.,0.;              177P    215
126,1,1,0,0,1,0,-1.25,-1.25,1.25,1.25,1.,1.,20.8253990405599,        179P    216
0.961422407896138,51.7409439636228,-4.17460095944008,                179P    217
0.961422407896138,51.7409439636228,-1.25,1.25,0.,0.,0.;              179P    218
126,1,1,0,0,1,0,-1.25,-1.25,1.25,1.25,1.,1.,-4.17460095944008,       181P    219
-0.0385775921038634,51.7409439636228,20.8253990405599,               181P    220
-0.0385775921038634,51.7409439636228,-1.25,1.25,0.,0.,0.;            181P    221
126,1,1,0,0,1,0,-1.25,-1.25,1.25,1.25,1.,1.,20.8253990405599,        183P    222
-0.0385775921038634,91.7409439636228,-4.17460095944008,              183P    223
-0.0385775921038634,91.7409439636228,-1.25,1.25,0.,0.,0.;            183P    224
128,1,2,1,2,0,0,0,0,0,-0.025,-0.025,0.025,0.025,0.,0.,0.,            185P    225
1.31811608319431,1.31811608319431,1.31811608319431,1.,1.,            185P    226
0.79056941150825,0.79056941150825,1.,1.,25.000000372529,0.,          185P    227
6.10947603618683D-7,25.000000372529,1.,6.10947603618683D-7,          185P    228
40.000000596029,0.,3.87298383019863,40.000000596029,1.,              185P    229
3.87298383019863,40.000000596029,0.,19.3649173996921,                185P    230
40.000000596029,1.,19.3649173996921,-0.025,0.025,0.,                 185P    231
1.31811608319431;                                                    185P    232
128,1,1,1,1,0,0,1,0,0,-0.051,-0.051,0.051,0.051,                     187P    233
-0.0645083211255465,-0.0645083211255465,0.0645083211255463,          187P    234
0.0645083211255463,1.,1.,1.,1.,40.000000596029,-0.01,                187P    235
19.3549173996921,40.000000596029,1.01,19.3549173996921,              187P    236
40.000000596029,-0.01,20.6450838222031,40.000000596029,1.01,         187P    237
20.6450838222031,-0.051,0.051,-0.0645083211255465,                   187P    238
0.0645083211255463;                                                  187P    239
128,1,2,1,2,0,0,0,0,0,-0.025,-0.025,0.025,0.025,0.,0.,0.,            189P    240
1.31811608319431,1.31811608319431,1.31811608319431,1.,1.,            189P    241
0.79056941150825,0.79056941150825,1.,1.,25.000000372529,1.,          189P    242
40.0000006109476,25.000000372529,0.,40.0000006109476,                189P    243
40.000000596029,1.,36.1270173916966,40.000000596029,0.,              189P    244
36.1270173916966,40.000000596029,1.,20.6350838222031,                189P    245
40.000000596029,0.,20.6350838222031,-0.025,0.025,0.,                 189P    246
1.31811608319431;                                                    189P    247
128,1,1,1,1,0,0,1,0,0,-0.051,-0.051,0.051,0.051,-0.751000011175,     191P    248
-0.751000011175,0.751000011175,0.751000011175,1.,1.,1.,1.,           191P    249
0.0100000000000044,-0.01,38.0000005662441,0.0100000000000044,        191P    250
1.01,38.0000005662441,-15.0100002235,-0.01,38.0000005662441,         191P    251
-15.0100002235,1.01,38.0000005662441,-0.051,0.051,                   191P    252
-0.751000011175,0.751000011175;                                      191P    253
128,1,1,1,1,0,0,1,0,0,-0.051,-0.051,0.051,0.051,-0.20100000298,      193P    254
-0.20100000298,0.20100000298,0.20100000298,1.,1.,1.,1.,              193P    255
-15.0000002235,-0.01,38.0100005662441,-15.0000002235,1.01,           193P    256
38.0100005662441,-15.0000002235,-0.01,33.9900005066441,              193P    257
-15.0000002235,1.01,33.9900005066441,-0.051,0.051,                   193P    258
-0.20100000298,0.20100000298;                                        193P    259
128,1,1,1,1,0,0,1,0,0,-0.051,-0.051,0.051,0.051,-0.751000011175,     195P    260
-0.751000011175,0.751000011175,0.751000011175,1.,1.,1.,1.,           195P    261
0.0100000000000044,1.01,34.0000005066441,0.0100000000000044,         195P    262
-0.01,34.0000005066441,-15.0100002235,1.01,34.0000005066441,         195P    263
-15.0100002235,-0.01,34.0000005066441,-0.051,0.051,                  195P    264
-0.751000011175,0.751000011175;                                      195P    265
128,1,1,1,1,0,0,1,0,0,-0.051,-0.051,0.051,0.051,-2.001,-2.001,       197P    266
1.40100005066441,1.40100005066441,1.,1.,1.,1.,                       197P    267
-1.11022302462553D-18,1.01,-0.0099999999999989,                      197P    268
-1.11022302462553D-18,-0.01,-0.0099999999999989,                     197P    269
3.77586856299896D-15,1.01,34.0100005066441,3.77586856299896D-15,     197P    270
-0.01,34.0100005066441,-0.051,0.051,-2.001,1.40100005066441;         197P    271
128,1,1,1,1,0,0,1,0,0,-0.051,-0.051,0.051,0.051,                     199P    272
1.79900005662441,1.79900005662441,2.001,2.001,1.,1.,1.,1.,           199P    273
4.2177373334167D-15,1.01,37.9900005662441,4.2177373334167D-15,       199P    274
-0.01,37.9900005662441,4.44200232152525D-15,1.01,40.01,              199P    275
4.44200232152525D-15,-0.01,40.01,-0.051,0.051,1.79900005662441,      199P    276
2.001;                                                               199P    277
128,1,1,1,1,0,0,1,0,0,-2.001,-2.001,2.00100006109476,                201P    278
2.00100006109476,-2.75100002235,-2.75100002235,2.7510000596029,      201P    279
2.7510000596029,1.,1.,1.,1.,-15.0100002235,1.,                       201P    280
-0.00999999999999806,-15.0100002235,1.,40.0100006109476,             201P    281
40.010000596029,1.,-0.0100000000000042,40.010000596029,1.,           201P    282
40.0100006109476,-2.001,2.00100006109476,-2.75100002235,             201P    283
2.7510000596029;                                                     201P    284
128,1,1,1,1,0,0,1,0,0,-2.001,-2.001,2.00100006109476,                203P    285
2.00100006109476,-2.75100002235,-2.75100002235,2.7510000596029,      203P    286
2.7510000596029,1.,1.,1.,1.,-15.0100002235,0.,40.0100006109476,      203P    287
-15.0100002235,0.,-0.00999999999999806,40.010000596029,0.,           203P    288
40.0100006109476,40.010000596029,0.,-0.0100000000000042,-2.001,      203P    289
2.00100006109476,-2.75100002235,2.7510000596029;                     203P    290
128,1,1,1,1,0,0,1,0,0,-0.051,-0.051,0.051,0.051,-1.251,-1.251,       205P    291
1.251,1.251,1.,1.,1.,1.,-0.0099999999999989,-0.01,                   205P    292
-8.31557045444242D-16,-0.0099999999999989,1.01,                      205P    293
-8.31557045444242D-16,25.01,-0.01,-3.60933505305638D-15,25.01,       205P    294
1.01,-3.60933505305638D-15,-0.051,0.051,-1.251,1.251;                205P    295
128,1,1,1,1,0,0,1,0,0,-0.051,-0.051,0.051,0.051,-1.251,-1.251,       207P    296
1.251,1.251,1.,1.,1.,1.,-0.00999999999999446,1.01,40.,               207P    297
-0.00999999999999446,-0.01,40.,25.01,1.01,40.,25.01,-0.01,40.,       207P    298
-0.051,0.051,-1.251,1.251;                                           207P    299
128,1,2,1,2,0,0,0,0,0,-0.025,-0.025,0.025,0.025,0.,0.,0.,            209P    300
1.31811608319431,1.31811608319431,1.31811608319431,1.,1.,            209P    301
0.79056941150825,0.79056941150825,1.,1.,20.8253994130889,            209P    302
-0.0385775921038634,51.7409445745704,20.8253994130889,               209P    303
0.961422407896138,51.7409445745704,35.8253996365889,                 209P    304
-0.0385775921038634,55.6139277938214,35.8253996365889,               209P    305
0.961422407896138,55.6139277938214,35.8253996365889,                 209P    306
-0.0385775921038634,71.1058613633149,35.8253996365889,               209P    307
0.961422407896138,71.1058613633149,-0.025,0.025,0.,                  209P    308
1.31811608319431;                                                    209P    309
128,1,1,1,1,0,0,1,0,0,-0.051,-0.051,0.051,0.051,                     211P    310
-0.0645083211255463,-0.0645083211255463,0.0645083211255463,          211P    311
0.0645083211255463,1.,1.,1.,1.,35.8253996365889,                     211P    312
-0.0485775921038634,71.0958613633149,35.8253996365889,               211P    313
0.971422407896138,71.0958613633149,35.8253996365889,                 211P    314
-0.0485775921038634,72.3860277858259,35.8253996365889,               211P    315
0.971422407896138,72.3860277858259,-0.051,0.051,                     211P    316
-0.0645083211255463,0.0645083211255463;                              211P    317
128,1,2,1,2,0,0,0,0,0,-0.025,-0.025,0.025,0.025,0.,0.,0.,            213P    318
1.31811608319431,1.31811608319431,1.31811608319431,1.,1.,            213P    319
0.79056941150825,0.79056941150825,1.,1.,20.8253994130889,            213P    320
0.961422407896138,91.7409445745704,20.8253994130889,                 213P    321
-0.0385775921038634,91.7409445745704,35.8253996365889,               213P    322
0.961422407896138,87.8679613553194,35.8253996365889,                 213P    323
-0.0385775921038634,87.8679613553194,35.8253996365889,               213P    324
0.961422407896138,72.3760277858259,35.8253996365889,                 213P    325
-0.0385775921038634,72.3760277858259,-0.025,0.025,0.,                213P    326
1.31811608319431;                                                    213P    327
128,1,1,1,1,0,0,1,0,0,-0.051,-0.051,0.051,0.051,-2.001,-2.001,       215P    328
2.001,2.001,1.,1.,1.,1.,-4.17460095944009,0.971422407896138,         215P    329
51.7309439636228,-4.17460095944009,-0.0485775921038634,              215P    330
51.7309439636228,-4.17460095944008,0.971422407896138,                215P    331
91.7509439636228,-4.17460095944008,-0.0485775921038634,              215P    332
91.7509439636228,-0.051,0.051,-2.001,2.001;                          215P    333
128,1,1,1,1,0,0,1,0,0,-2.001,-2.001,2.00100006109476,                217P    334
2.00100006109476,-1.251,-1.251,2.7510000596029,2.7510000596029,      217P    335
1.,1.,1.,1.,-4.18460095944009,0.961422407896138,                     217P    336
51.7309439636228,-4.18460095944008,0.961422407896138,                217P    337
91.7509445745704,35.8353996365889,0.961422407896138,                 217P    338
51.7309439636228,35.8353996365889,0.961422407896138,                 217P    339
91.7509445745704,-2.001,2.00100006109476,-1.251,2.7510000596029;     217P    340
128,1,1,1,1,0,0,1,0,0,-2.001,-2.001,2.00100006109476,                219P    341
2.00100006109476,-1.251,-1.251,2.7510000596029,2.7510000596029,      219P    342
1.,1.,1.,1.,-4.18460095944008,-0.0385775921038634,                   219P    343
91.7509445745704,-4.18460095944009,-0.0385775921038634,              219P    344
51.7309439636228,35.835399636589,-0.0385775921038634,                219P    345
91.7509445745704,35.8353996365889,-0.0385775921038634,               219P    346
51.7309439636228,-2.001,2.00100006109476,-1.251,2.7510000596029;     219P    347
128,1,1,1,1,0,0,1,0,0,-0.051,-0.051,0.051,0.051,-1.251,-1.251,       221P    348
1.251,1.251,1.,1.,1.,1.,-4.18460095944008,-0.0485775921038634,       221P    349
51.7409439636228,-4.18460095944008,0.971422407896138,                221P    350
51.7409439636228,20.8353990405599,-0.0485775921038634,               221P    351
51.7409439636228,20.8353990405599,0.971422407896138,                 221P    352
51.7409439636228,-0.051,0.051,-1.251,1.251;                          221P    353
128,1,1,1,1,0,0,1,0,0,-0.051,-0.051,0.051,0.051,-1.251,-1.251,       223P    354
1.251,1.251,1.,1.,1.,1.,-4.18460095944008,0.971422407896138,         223P    355
91.7409439636228,-4.18460095944008,-0.0485775921038634,              223P    356
91.7409439636228,20.8353990405599,0.971422407896138,                 223P    357
91.7409439636228,20.8353990405599,-0.0485775921038634,               223P    358
91.7409439636228,-0.051,0.051,-1.251,1.251;                          223P    359
502,20,25.,1.,-2.22044604925031D-15,40.000000596029,1.,              225P    360
19.3649173996921,40.000000596029,0.,19.3649173996921,25.,0.,         225P    361
-2.22044604925031D-15,40.000000596029,1.,20.6350838222031,           225P    362
40.000000596029,0.,20.6350838222031,25.,0.,40.,25.,1.,40.,           225P    363
-15.0000002235,1.,38.0000005662441,-15.0000002235,0.,                225P    364
38.0000005662441,0.,0.,38.0000005662441,0.,1.,38.0000005662441,      225P    365
-15.0000002235,1.,34.0000005066441,-15.0000002235,0.,                225P    366
34.0000005066441,0.,0.,34.0000005066441,0.,1.,34.0000005066441,      225P    367
0.,1.,0.,0.,0.,0.,4.44089209850063D-15,0.,40.,                       225P    368
4.44089209850063D-15,1.,40.;                                         225P    369
502,12,20.8253990405599,0.961422407896138,51.7409439636228,          227P    370
35.8253996365889,0.961422407896138,71.1058613633149,                 227P    371
35.8253996365889,-0.0385775921038634,71.1058613633149,               227P    372
20.8253990405599,-0.0385775921038634,51.7409439636228,               227P    373
35.8253996365889,0.961422407896138,72.3760277858259,                 227P    374
35.8253996365889,-0.0385775921038634,72.3760277858259,               227P    375
20.8253990405599,-0.0385775921038634,91.7409439636228,               227P    376
20.8253990405599,0.961422407896138,91.7409439636228,                 227P    377
-4.17460095944008,0.961422407896138,51.7409439636228,                227P    378
-4.17460095944008,0.961422407896138,91.7409439636228,                227P    379
-4.17460095944008,-0.0385775921038634,51.7409439636228,              227P    380
-4.17460095944008,-0.0385775921038634,91.7409439636228;              227P    381
504,30,89,225,1,225,2,91,225,2,225,3,93,225,3,225,4,95,225,1,        229P    382
225,4,97,225,5,225,2,99,225,6,225,5,101,225,3,225,6,103,225,7,       229P    383
225,6,105,225,5,225,8,107,225,8,225,7,109,225,9,225,10,111,225,      229P    384
11,225,10,113,225,12,225,11,115,225,9,225,12,117,225,13,225,14,      229P    385
119,225,10,225,14,121,225,13,225,9,123,225,15,225,16,125,225,14,     229P    386
225,15,127,225,16,225,13,129,225,17,225,16,131,225,17,225,18,        229P    387
133,225,15,225,18,135,225,19,225,11,137,225,20,225,19,139,225,       229P    388
12,225,20,141,225,20,225,8,143,225,1,225,17,145,225,7,225,19,        229P    389
147,225,18,225,4;                                                    229P    390
504,18,149,227,1,227,2,151,227,2,227,3,153,227,3,227,4,155,227,      231P    391
1,227,4,157,227,5,227,2,159,227,6,227,5,161,227,3,227,6,163,227,     231P    392
7,227,6,165,227,5,227,8,167,227,8,227,7,169,227,9,227,10,171,        231P    393
227,9,227,11,173,227,12,227,11,175,227,10,227,12,177,227,10,227,     231P    394
8,179,227,1,227,9,181,227,11,227,4,183,227,7,227,12;                 231P    395
406,1,5HBody1;                                                       233P    396
406,1,5HBody4;                                                       235P    397
314,62.7450980392157,62.7450980392157,62.7450980392157,13HSteel      237P    398
- Satin;                                                             237P    399
S      1G      2D    238P    399                                        T      1
