<?xml version="1.0" encoding="UTF-8" standalone="no"?>
<svg width="290px" height="279px" viewBox="0 0 290 279" version="1.1" xmlns="http://www.w3.org/2000/svg" xmlns:xlink="http://www.w3.org/1999/xlink">
    <defs></defs>
    <g id="Page-1" stroke="none" stroke-width="1" fill="none" fill-rule="evenodd">
        <g id="drawing" stroke-width="0.8884353" stroke="#979797">
            <g id="layer1">
                <g id="Page-1" transform="translate(0.919429, 0.648215)">
                    <path d="M0.79968634,152.31496 L12.638929,152.31496 L12.638929,116.34588 L15.254353,113.95825 L12.638929,111.33378 L12.638929,105.24306 L29.216023,105.24306 L29.216023,111.33378 L27.342736,113.95825 L29.216023,116.34588 L29.216023,152.31496 L138.40854,152.31496 L138.40854,211.6407 C138.40854,248.7879 92.892921,276.91525 69.604112,276.91525 C47.023309,276.91525 0.79968619,254.88193 0.79968619,211.6407 L0.79968634,152.31496 L0.79968634,152.31496 Z" id="Path-1"></path>
                    <path d="M288.32302,125.28778 L150.71416,125.28778 L150.71416,65.962033 C150.71416,28.814836 196.22978,0.68748762 219.51859,0.68748762 C242.09938,0.68748762 288.32302,22.720805 288.32302,65.962035 L288.32302,125.28778 L288.32302,125.28778 Z" id="Path-1-Copy"></path>
                    <path d="M6.8436255,157.65686 L132.3646,157.65686 L132.3646,211.7713 C132.36461,245.6554 90.847181,271.31198 69.604112,271.31198 C49.006859,271.31198 6.8436253,251.21411 6.8436253,211.7713 L6.8436255,157.65686 L6.8436255,157.65686 Z" id="Path-1-Copy-2"></path>
                    <path d="M282.27908,119.81519 L156.7581,119.81519 L156.7581,65.700756 C156.7581,31.816651 198.27551,6.160082 219.51859,6.160082 C240.11585,6.160082 282.27908,26.257935 282.27908,65.700758 L282.27908,119.81519 L282.27908,119.81519 Z" id="Path-1-Copy-3"></path>
                </g>
            </g>
        </g>
    </g>
</svg>